<?xml version="1.0" ?>

<!-- Uploaded to: SVG Repo, www.svgrepo.com, Generator: SVG Repo Mixer Tools -->
<svg width="800px" height="800px" viewBox="0 0 512 512" id="Layer_1" version="1.1" xml:space="preserve" xmlns="http://www.w3.org/2000/svg" xmlns:xlink="http://www.w3.org/1999/xlink">

<style type="text/css">
	.st0{fill:#2B79C2;}
	.st1{fill:#3B4652;}
	.st2{fill:#333333;}
</style>

<g>

<path class="st0" d="M263.3,40.3v67.3h-31.9V76.2h-32.9v31.5h-30V76.2h-32.9v31.5h-31.9V40.3c0-5.2,4.2-9.5,9.5-9.5h140.7   C259.1,30.9,263.3,35.1,263.3,40.3z"/>

<path class="st1" d="M282.9,123.7H84.1c-5.9,0-10.8,4.8-10.8,10.8v235.2c0,60.9,48.9,111.3,109.8,111.5c23.9,0.1,46-7.5,64.1-20.3   V349.5c0-14.7,9.1-27.4,21.9-32.6v-53.9c0-3.2,0.3-6.5,0.9-9.7c2.8-14.4,11.6-26.4,23.6-33.7v-85.2   C293.7,128.5,288.9,123.7,282.9,123.7z M230.9,263.1c0,3.1-1.8,6-4.7,7.3l-31.1,14.1v54c14.2,3.6,24.7,16.4,24.7,31.7   c0,18-14.7,32.7-32.7,32.7c-18,0-32.7-14.7-32.7-32.7c0-15.3,10.5-28.1,24.7-31.7v-27.9L147.2,291c-2.4-1.4-3.8-4-3.8-6.8v-33.8   c0-4.4,3.6-8,8-8c4.4,0,8,3.6,8,8v29.4l19.8,12.1v-93.6c0-4.4,3.6-8,8-8c4.4,0,8,3.6,8,8v68.7l19.7-9v-36.6c0-4.4,3.6-8,8-8   c4.4,0,8,3.6,8,8V263.1z"/>

<path class="st0" d="M419.4,330.2h-2.6v-67.3c0-19-15.5-34.5-34.5-34.5h-62.6c-16.5,0-30.7,11.8-33.9,27.9   c-0.4,2.2-0.6,4.4-0.6,6.6v67.3h-2.6c-10.6,0-19.3,8.6-19.3,19.3v112.4c0,10.6,8.6,19.3,19.3,19.3h136.9c10.6,0,19.3-8.6,19.3-19.3   V349.5C438.7,338.8,430.1,330.2,419.4,330.2z M301.2,262.9c0-1.2,0.1-2.4,0.3-3.6c1.7-8.7,9.3-15,18.2-15h62.6   c10.2,0,18.5,8.3,18.5,18.5v67.3h-99.6V262.9z M377.4,398.9c0,0.3,0,0.5-0.1,0.7c-1.1,10.6-8.5,19.3-18.4,22.5V441c0,4.4-3.6,8-8,8   s-8-3.6-8-8v-18.9c-9.4-3-16.6-11.1-18.2-21.1c-0.1-0.5-0.1-0.9-0.2-1.4c0-0.2-0.1-0.5-0.1-0.7c-0.1-0.7-0.1-1.4-0.1-2.1   c0-14.7,11.9-26.5,26.5-26.5c14.7,0,26.5,11.9,26.5,26.5C377.5,397.5,377.5,398.2,377.4,398.9z"/>

</g>

</svg>